<?xml version="1.0" encoding="UTF-8"?>
<svg width="800" height="164" viewBox="0 0 800 164" xmlns="http://www.w3.org/2000/svg">
  <title>Amdocs Logo</title>
  <path fill="#ff7900" d="M800 61c-6-3-22-9-34-9-11 0-16 3-16 7 0 14 55 4 55 40 0 20-19 32-46 32-16 0-35-4-47-11l6-24c10 6 28 11 40 11 11 0 17-3 17-8 0-14-55-4-55-39 0-20 19-31 45-31 15 0 30 3 41 8l-6 24zm-154 4h-35l-7 30c-1 5-2 9-2 12 0 5 3 7 8 7 7 0 15-2 22-5l-5 24c-8 3-17 5-28 5-21 0-31-11-31-26 0-5 1-10 2-16l7-31h-21l5-23h21l4-19 35-11-7 30h35l-5 23zm-166 73c-38 0-63-23-63-57 0-42 35-75 79-75 38 0 63 23 63 57 0 42-35 75-79 75zm10-108c-25 0-45 22-45 47 0 20 13 33 33 33 25 0 45-22 45-47 0-20-13-33-33-33zM362 41l-1 5h1c10-4 23-7 35-7 35 0 52 20 47 42l-13 57h-34l12-51c3-11 0-20-15-20-8 0-16 2-23 5l-14 66h-35l23-97h17zm-57 97h-35l30-127h35l-30 127zm-145 0h-35l17-74h-21l5-23h21l2-7c5-22 20-35 48-35 8 0 17 1 24 3l-5 23c-5-2-11-2-16-2-13 0-18 6-20 13l-2 5h35l-5 23h-35l-13 74z"/>
</svg>
